<svg id="Layer_1" data-name="Layer 1" xmlns="http://www.w3.org/2000/svg" viewBox="0 0 133.24 162.85"><defs><style>.cls-1{fill:#f0532c;}.cls-2{fill:#221f1f;}</style></defs><title>outbound-logo</title><path class="cls-1" d="M82.72,93.94a39.61,39.61,0,0,0,39.52,39.31h11V0H0L0,11.49A39.6,39.6,0,0,0,39.55,51h2v1.84A39.64,39.64,0,0,0,80.88,92.1h1.83Zm40.8,29.63-1.89,0A30,30,0,0,1,92.42,94V92.1h31.11Zm-84-82.31A29.88,29.88,0,0,1,9.73,11.56V9.7H123.52V41.26ZM51.27,52.82V51h72.27V82.4H81.08A29.9,29.9,0,0,1,51.27,52.82Z"/><path class="cls-2" d="M87.82,123.55H9.7V45.84A46,46,0,0,1,0,34.06v99.18H99.56A46,46,0,0,1,87.82,123.55Z"/><path class="cls-2" d="M0,152.06c0-4.49,2.45-7.23,6.22-7.23s6.22,2.74,6.22,7.23S10,159.3,6.22,159.3,0,156.46,0,152.06Zm10.87,0c0-3.66-1.73-6-4.65-6s-4.65,2.29-4.65,6,1.75,6,4.65,6S10.87,155.72,10.87,152.06Zm3,3.35v-6.17h1.34v6c0,1.91.89,2.76,2.22,2.76,1.77,0,2.84-1.52,2.84-3.48v-5.31h1.36V159H20.38v-2a3.33,3.33,0,0,1-3.15,2.24C14.8,159.2,13.91,157.72,13.91,155.41Zm9-6.17h1.79v-2.57l1.36-.58v3.15h2.51v1.13H26.1v5.83c0,1.15.51,1.65,1.52,1.65a3.93,3.93,0,0,0,1-.14V159a4.58,4.58,0,0,1-1.34.18c-1.89,0-2.53-1.15-2.53-2.88v-5.89H23ZM31.49,157,31.24,159h-1v-14.1h1.34v6.36A3.37,3.37,0,0,1,34.82,149c2.39,0,3.95,2.08,3.95,5.1s-1.6,5.1-4,5.1A3.37,3.37,0,0,1,31.49,157Zm5.83-2.92c0-2.35-1.05-3.89-2.92-3.89s-2.88,1.46-2.88,3.7v.47c0,2.16,1.09,3.62,2.84,3.62S37.33,156.48,37.33,154.1Zm2.71,0c0-3.17,1.77-5.1,4.47-5.1S49,150.93,49,154.1s-1.77,5.1-4.45,5.1S40,157.27,40,154.1Zm7.49,0c0-2.53-1.15-3.91-3-3.91s-3,1.38-3,3.91,1.15,3.91,3,3.91S47.52,156.63,47.52,154.1Zm2.81,1.3v-6.17h1.34v6c0,1.91.89,2.76,2.22,2.76,1.77,0,2.84-1.52,2.84-3.48v-5.31H58.1V159H56.81v-2a3.33,3.33,0,0,1-3.15,2.24C51.23,159.2,50.34,157.72,50.34,155.41Zm9.29-6.17h1.28v2.14A3.32,3.32,0,0,1,64.23,149c2.18,0,3.31,1.36,3.31,4v6H66.18V153c0-1.89-.82-2.86-2.35-2.86-1.75,0-2.86,1.4-2.86,3.68V159H59.62Zm9.27,4.86c0-3,1.69-5.1,4.16-5.1a3.1,3.1,0,0,1,3.05,2v-6.15h1.36V159H76.19V156.9a3.39,3.39,0,0,1-3.29,2.29C70.49,159.2,68.89,157.14,68.89,154.1Zm7.23.21v-.41c0-2.22-1.07-3.7-2.88-3.7s-2.92,1.46-2.92,3.89,1.09,3.89,2.9,3.89S76.13,156.48,76.13,154.32ZM88.28,157v2h-9.1v-14.1h9v2.26H81.69v3.65h6.13v1.94H81.69V157ZM90,149.24h2.22v1.89A3.32,3.32,0,0,1,95.44,149c2.12,0,3.23,1.34,3.23,3.95v6H96.32v-5.8c0-1.54-.58-2.3-1.81-2.3s-2.18,1.09-2.18,2.94V159H90Zm20.49-4H113v2.43h-2.53Zm.12,4h2.33V159H110.6Zm3.82,0h2.22v1.89a3.32,3.32,0,0,1,3.23-2.14c2.12,0,3.23,1.34,3.23,3.95v6h-2.35v-5.8c0-1.54-.58-2.3-1.81-2.3s-2.18,1.09-2.18,2.94V159h-2.33Zm18.83,5.45h-6.83a2.5,2.5,0,0,0,2.59,2.68,2.45,2.45,0,0,0,2.37-1.61l1.79.82a4.33,4.33,0,0,1-4.24,2.63c-3,0-4.77-1.81-4.77-5s1.75-5.19,4.65-5.19,4.43,1.63,4.43,4.61ZM131,153c0-1.59-.8-2.43-2.18-2.43s-2.31,1-2.35,2.59H131Zm-30.68,6.62h2.31c.19,1.14.94,1.58,2.12,1.58,1.45,0,2.12-.79,2.12-2.51V157a2.82,2.82,0,0,1-2.83,1.91c-2.37,0-4-2.06-4-5s1.7-4.9,4.11-4.9a3,3,0,0,1,2.85,1.73l.3-1.48h1.9v9.39c0,2.85-1.54,4.22-4.49,4.22C102,162.85,100.5,161.81,100.27,159.61Zm6.59-5.36v-.67c0-1.7-.91-2.81-2.22-2.81s-2.27,1.16-2.27,3.16.89,3.33,2.26,3.33S106.86,156,106.86,154.25Z"/></svg>